<?xml version="1.0" encoding="UTF-8" standalone="no"?>
<!DOCTYPE svg PUBLIC "-//W3C//DTD SVG 1.1//EN" "http://www.w3.org/Graphics/SVG/1.1/DTD/svg11.dtd">
<svg width="100%" height="100%" viewBox="0 0 512 214" version="1.1" xmlns="http://www.w3.org/2000/svg" xmlns:xlink="http://www.w3.org/1999/xlink" xml:space="preserve" xmlns:serif="http://www.serif.com/" style="fill-rule:evenodd;clip-rule:evenodd;stroke-linejoin:round;stroke-miterlimit:2;">
    <g transform="matrix(1,0,0,1,-0.00437,-149.074)">
        <g transform="matrix(1.25,0,0,-1.25,119.519,313.006)">
            <g id="g12" transform="matrix(0.187568,0,0,0.187568,-95.6124,-39.9353)">
                <path id="path14" d="M1308.73,601.652C1260.85,601.652 1225.19,578.141 1225.19,521.559C1225.19,478.926 1248.69,449.332 1306.15,449.332C1354.85,449.332 1387.93,478.027 1387.93,523.32C1387.93,574.648 1358.33,601.652 1308.73,601.652ZM1213,202.133C1201.67,188.227 1190.38,173.453 1190.38,156.016C1190.38,121.23 1234.74,110.762 1295.68,110.762C1346.16,110.762 1414.92,114.297 1414.92,161.23C1414.92,189.125 1381.84,190.852 1340.04,193.473L1213,202.133ZM1470.61,599.023C1486.25,579 1502.81,551.145 1502.81,511.113C1502.81,414.512 1427.09,357.949 1317.46,357.949C1289.58,357.949 1264.34,361.422 1248.69,365.766L1219.96,319.648L1305.24,314.438C1455.82,304.844 1544.56,300.484 1544.56,184.777C1544.56,84.668 1456.68,28.125 1305.24,28.125C1147.72,28.125 1087.67,68.164 1087.67,136.906C1087.67,176.086 1105.08,196.926 1135.54,225.688C1106.81,237.832 1097.25,259.578 1097.25,283.086C1097.25,302.246 1106.81,319.648 1122.5,336.195C1138.16,352.715 1155.56,369.273 1176.45,388.414C1133.81,409.297 1101.6,454.555 1101.6,518.969C1101.6,619.043 1167.75,687.773 1300.88,687.773C1338.31,687.773 1360.95,684.328 1380.97,679.074L1550.69,679.074L1550.69,605.117L1470.61,599.023" style="fill:rgb(240,60,46);fill-rule:nonzero;"/>
                <path id="path16" d="M1703.8,757.168C1654.18,757.168 1625.47,785.914 1625.47,835.539C1625.47,885.102 1654.18,912.102 1703.8,912.102C1754.28,912.102 1783,885.102 1783,835.539C1783,785.914 1754.28,757.168 1703.8,757.168ZM1591.51,234.156L1591.51,302.875L1635.91,308.949C1648.1,310.715 1649.83,313.305 1649.83,326.391L1649.83,582.258C1649.83,591.813 1647.23,597.93 1638.5,600.52L1591.51,617.07L1601.08,687.539L1781.25,687.539L1781.25,326.391C1781.25,312.441 1782.09,310.715 1795.18,308.949L1839.57,302.875L1839.57,234.156L1591.51,234.156" style="fill:rgb(240,60,46);fill-rule:nonzero;"/>
                <path id="path18" d="M2183.73,267.895C2146.29,249.641 2091.47,233.102 2041.84,233.102C1938.28,233.102 1899.13,274.836 1899.13,373.223L1899.13,601.227C1899.13,606.438 1899.13,609.934 1892.14,609.934L1831.23,609.934L1831.23,687.387C1907.84,696.113 1938.28,734.414 1947.85,829.273L2030.54,829.273L2030.54,705.648C2030.54,699.578 2030.54,696.949 2037.51,696.949L2160.21,696.949L2160.21,609.934L2030.54,609.934L2030.54,401.945C2030.54,350.59 2042.74,330.59 2089.71,330.59C2114.11,330.59 2139.32,336.664 2160.21,344.504L2183.73,267.895" style="fill:rgb(240,60,46);fill-rule:nonzero;"/>
                <path id="path20" d="M894.215,496.285L496.277,894.195C473.379,917.113 436.211,917.113 413.281,894.195L330.652,811.559L435.469,706.738C459.836,714.965 487.766,709.449 507.18,690.031C526.695,670.492 532.172,642.324 523.738,617.875L624.762,516.855C649.203,525.277 677.402,519.836 696.918,500.285C724.203,473.008 724.203,428.809 696.918,401.523C669.629,374.23 625.43,374.23 598.129,401.523C577.613,422.055 572.539,452.199 582.93,477.477L488.715,571.695L488.707,323.766C495.359,320.473 501.637,316.078 507.18,310.559C534.457,283.285 534.457,239.094 507.18,211.777C479.895,184.504 435.676,184.504 408.418,211.777C381.137,239.094 381.137,283.285 408.418,310.559C415.16,317.289 422.961,322.383 431.285,325.797L431.285,576.027C422.961,579.43 415.172,584.488 408.418,591.266C387.754,611.914 382.777,642.242 393.375,667.617L290.051,770.961L17.199,498.125C-5.727,475.188 -5.727,438.02 17.199,415.098L415.133,17.188C438.043,-5.73 475.199,-5.73 498.141,17.188L894.215,413.254C917.133,436.184 917.133,473.363 894.215,496.285" style="fill:rgb(240,60,46);fill-rule:nonzero;"/>
            </g>
        </g>
    </g>
</svg>
