<?xml version="1.0" encoding="UTF-8" standalone="no"?>
<!DOCTYPE svg PUBLIC "-//W3C//DTD SVG 1.1//EN" "http://www.w3.org/Graphics/SVG/1.1/DTD/svg11.dtd">
<svg width="100%" height="100%" viewBox="0 0 256 256" version="1.1" xmlns="http://www.w3.org/2000/svg" xmlns:xlink="http://www.w3.org/1999/xlink" xml:space="preserve" xmlns:serif="http://www.serif.com/" style="fill-rule:evenodd;clip-rule:evenodd;stroke-linejoin:round;stroke-miterlimit:2;">
    <g>
        <path d="M237.033,0.018L18.89,0.018C8.58,-0.098 0.125,8.161 -0.001,18.471L-0.001,237.524C0.121,247.839 8.575,256.106 18.89,255.998L237.033,255.998C247.369,256.126 255.856,247.859 255.999,237.524L255.999,18.455C255.852,8.124 247.364,-0.134 237.033,0.001L237.033,0.018Z" style="fill:rgb(235,235,235);fill-opacity:0;"/>
        <path d="M218.123,218.127L180.192,218.127L180.192,158.724C180.192,144.559 179.939,126.324 160.464,126.324C140.708,126.324 137.685,141.758 137.685,157.693L137.685,218.123L99.754,218.123L99.754,95.967L136.168,95.967L136.168,112.661L136.678,112.661C144.103,99.965 157.909,92.382 172.606,92.928C211.051,92.928 218.139,118.216 218.139,151.114L218.123,218.127ZM56.955,79.269C44.798,79.271 34.941,69.417 34.939,57.26C34.937,45.103 44.79,35.246 56.947,35.244C69.104,35.241 78.961,45.095 78.963,57.252C78.964,63.09 76.646,68.69 72.519,72.818C68.391,76.947 62.793,79.267 56.955,79.269M75.921,218.127L37.95,218.127L37.95,95.967L75.921,95.967L75.921,218.127ZM237.033,0.018L18.89,0.018C8.58,-0.098 0.125,8.161 -0.001,18.471L-0.001,237.524C0.121,247.839 8.575,256.106 18.89,255.998L237.033,255.998C247.369,256.126 255.856,247.859 255.999,237.524L255.999,18.455C255.852,8.124 247.364,-0.134 237.033,0.001" style="fill:rgb(10,102,194);fill-rule:nonzero;"/>
    </g>
</svg>
